<mxfile host="app.diagrams.net" modified="2023-08-12T01:23:04.443Z" agent="Mozilla/5.0 (Windows NT 10.0; Win64; x64) AppleWebKit/537.36 (KHTML, like Gecko) Chrome/115.0.0.0 Safari/537.36" etag="P9ATG1I1602ahumSWABQ" version="21.6.8" type="github">
  <diagram name="Página-1" id="tgWVo5uK4F6GuyLVSYW2">
    <mxGraphModel dx="1434" dy="853" grid="1" gridSize="10" guides="1" tooltips="1" connect="1" arrows="1" fold="1" page="1" pageScale="1" pageWidth="1920" pageHeight="1200" math="0" shadow="0">
      <root>
        <mxCell id="0" />
        <mxCell id="1" parent="0" />
        <mxCell id="wqTiMcuJJPnzFnuZAznY-1" value="Pão" style="swimlane;fontStyle=0;align=center;verticalAlign=top;childLayout=stackLayout;horizontal=1;startSize=55;horizontalStack=0;resizeParent=1;resizeParentMax=0;resizeLast=0;collapsible=0;marginBottom=0;html=1;whiteSpace=wrap;" parent="1" vertex="1">
          <mxGeometry x="40" y="10" width="540" height="358" as="geometry" />
        </mxCell>
        <mxCell id="wqTiMcuJJPnzFnuZAznY-23" value="- IdPao : int" style="text;html=1;strokeColor=none;fillColor=none;align=left;verticalAlign=middle;spacingLeft=4;spacingRight=4;overflow=hidden;rotatable=0;points=[[0,0.5],[1,0.5]];portConstraint=eastwest;whiteSpace=wrap;" parent="wqTiMcuJJPnzFnuZAznY-1" vertex="1">
          <mxGeometry y="55" width="540" height="35" as="geometry" />
        </mxCell>
        <mxCell id="wqTiMcuJJPnzFnuZAznY-11" value="- IdTipoPao : int" style="text;html=1;strokeColor=none;fillColor=none;align=left;verticalAlign=middle;spacingLeft=4;spacingRight=4;overflow=hidden;rotatable=0;points=[[0,0.5],[1,0.5]];portConstraint=eastwest;whiteSpace=wrap;" parent="wqTiMcuJJPnzFnuZAznY-1" vertex="1">
          <mxGeometry y="90" width="540" height="35" as="geometry" />
        </mxCell>
        <mxCell id="ot_1vHmXHA6oFnF6188Q-32" value="- Nome pao : int" style="text;html=1;strokeColor=none;fillColor=none;align=left;verticalAlign=middle;spacingLeft=4;spacingRight=4;overflow=hidden;rotatable=0;points=[[0,0.5],[1,0.5]];portConstraint=eastwest;whiteSpace=wrap;" vertex="1" parent="wqTiMcuJJPnzFnuZAznY-1">
          <mxGeometry y="125" width="540" height="35" as="geometry" />
        </mxCell>
        <mxCell id="wqTiMcuJJPnzFnuZAznY-24" value="- Estoque : int" style="text;html=1;strokeColor=none;fillColor=none;align=left;verticalAlign=middle;spacingLeft=4;spacingRight=4;overflow=hidden;rotatable=0;points=[[0,0.5],[1,0.5]];portConstraint=eastwest;whiteSpace=wrap;" parent="wqTiMcuJJPnzFnuZAznY-1" vertex="1">
          <mxGeometry y="160" width="540" height="35" as="geometry" />
        </mxCell>
        <mxCell id="ot_1vHmXHA6oFnF6188Q-12" value="- Preço pao : double" style="text;html=1;strokeColor=none;fillColor=none;align=left;verticalAlign=middle;spacingLeft=4;spacingRight=4;overflow=hidden;rotatable=0;points=[[0,0.5],[1,0.5]];portConstraint=eastwest;whiteSpace=wrap;" vertex="1" parent="wqTiMcuJJPnzFnuZAznY-1">
          <mxGeometry y="195" width="540" height="35" as="geometry" />
        </mxCell>
        <mxCell id="wqTiMcuJJPnzFnuZAznY-6" value="" style="line;strokeWidth=1;fillColor=none;align=left;verticalAlign=middle;spacingTop=-1;spacingLeft=3;spacingRight=3;rotatable=0;labelPosition=right;points=[];portConstraint=eastwest;" parent="wqTiMcuJJPnzFnuZAznY-1" vertex="1">
          <mxGeometry y="230" width="540" height="8" as="geometry" />
        </mxCell>
        <mxCell id="wqTiMcuJJPnzFnuZAznY-22" value="+ Inserir( list ) : void" style="text;html=1;strokeColor=none;fillColor=none;align=left;verticalAlign=middle;spacingLeft=4;spacingRight=4;overflow=hidden;rotatable=0;points=[[0,0.5],[1,0.5]];portConstraint=eastwest;whiteSpace=wrap;" parent="wqTiMcuJJPnzFnuZAznY-1" vertex="1">
          <mxGeometry y="238" width="540" height="30" as="geometry" />
        </mxCell>
        <mxCell id="wqTiMcuJJPnzFnuZAznY-14" value="+ alterar( obj ) : void" style="text;html=1;strokeColor=none;fillColor=none;align=left;verticalAlign=middle;spacingLeft=4;spacingRight=4;overflow=hidden;rotatable=0;points=[[0,0.5],[1,0.5]];portConstraint=eastwest;whiteSpace=wrap;" parent="wqTiMcuJJPnzFnuZAznY-1" vertex="1">
          <mxGeometry y="268" width="540" height="30" as="geometry" />
        </mxCell>
        <mxCell id="wqTiMcuJJPnzFnuZAznY-15" value="+ excluir( obj ) : void" style="text;html=1;strokeColor=none;fillColor=none;align=left;verticalAlign=middle;spacingLeft=4;spacingRight=4;overflow=hidden;rotatable=0;points=[[0,0.5],[1,0.5]];portConstraint=eastwest;whiteSpace=wrap;" parent="wqTiMcuJJPnzFnuZAznY-1" vertex="1">
          <mxGeometry y="298" width="540" height="30" as="geometry" />
        </mxCell>
        <mxCell id="wqTiMcuJJPnzFnuZAznY-16" value="+ pesquisar( obj ) : obj pao" style="text;html=1;strokeColor=none;fillColor=none;align=left;verticalAlign=middle;spacingLeft=4;spacingRight=4;overflow=hidden;rotatable=0;points=[[0,0.5],[1,0.5]];portConstraint=eastwest;whiteSpace=wrap;" parent="wqTiMcuJJPnzFnuZAznY-1" vertex="1">
          <mxGeometry y="328" width="540" height="30" as="geometry" />
        </mxCell>
        <mxCell id="ot_1vHmXHA6oFnF6188Q-15" value="Tipo de Pão" style="swimlane;fontStyle=0;align=center;verticalAlign=top;childLayout=stackLayout;horizontal=1;startSize=55;horizontalStack=0;resizeParent=1;resizeParentMax=0;resizeLast=0;collapsible=0;marginBottom=0;html=1;whiteSpace=wrap;" vertex="1" parent="1">
          <mxGeometry x="740" y="10" width="540" height="318" as="geometry" />
        </mxCell>
        <mxCell id="ot_1vHmXHA6oFnF6188Q-16" value="- IdTipoPao : int" style="text;html=1;strokeColor=none;fillColor=none;align=left;verticalAlign=middle;spacingLeft=4;spacingRight=4;overflow=hidden;rotatable=0;points=[[0,0.5],[1,0.5]];portConstraint=eastwest;whiteSpace=wrap;" vertex="1" parent="ot_1vHmXHA6oFnF6188Q-15">
          <mxGeometry y="55" width="540" height="35" as="geometry" />
        </mxCell>
        <mxCell id="ot_1vHmXHA6oFnF6188Q-17" value="- Tipo : string" style="text;html=1;strokeColor=none;fillColor=none;align=left;verticalAlign=middle;spacingLeft=4;spacingRight=4;overflow=hidden;rotatable=0;points=[[0,0.5],[1,0.5]];portConstraint=eastwest;whiteSpace=wrap;" vertex="1" parent="ot_1vHmXHA6oFnF6188Q-15">
          <mxGeometry y="90" width="540" height="30" as="geometry" />
        </mxCell>
        <mxCell id="ot_1vHmXHA6oFnF6188Q-20" value="- Descriçao pao : string" style="text;html=1;strokeColor=none;fillColor=none;align=left;verticalAlign=middle;spacingLeft=4;spacingRight=4;overflow=hidden;rotatable=0;points=[[0,0.5],[1,0.5]];portConstraint=eastwest;whiteSpace=wrap;" vertex="1" parent="ot_1vHmXHA6oFnF6188Q-15">
          <mxGeometry y="120" width="540" height="35" as="geometry" />
        </mxCell>
        <mxCell id="ot_1vHmXHA6oFnF6188Q-22" value="- Imagem pao : string" style="text;html=1;strokeColor=none;fillColor=none;align=left;verticalAlign=middle;spacingLeft=4;spacingRight=4;overflow=hidden;rotatable=0;points=[[0,0.5],[1,0.5]];portConstraint=eastwest;whiteSpace=wrap;" vertex="1" parent="ot_1vHmXHA6oFnF6188Q-15">
          <mxGeometry y="155" width="540" height="35" as="geometry" />
        </mxCell>
        <mxCell id="ot_1vHmXHA6oFnF6188Q-23" value="" style="line;strokeWidth=1;fillColor=none;align=left;verticalAlign=middle;spacingTop=-1;spacingLeft=3;spacingRight=3;rotatable=0;labelPosition=right;points=[];portConstraint=eastwest;" vertex="1" parent="ot_1vHmXHA6oFnF6188Q-15">
          <mxGeometry y="190" width="540" height="8" as="geometry" />
        </mxCell>
        <mxCell id="ot_1vHmXHA6oFnF6188Q-24" value="+ Inserir( list ) : void" style="text;html=1;strokeColor=none;fillColor=none;align=left;verticalAlign=middle;spacingLeft=4;spacingRight=4;overflow=hidden;rotatable=0;points=[[0,0.5],[1,0.5]];portConstraint=eastwest;whiteSpace=wrap;" vertex="1" parent="ot_1vHmXHA6oFnF6188Q-15">
          <mxGeometry y="198" width="540" height="30" as="geometry" />
        </mxCell>
        <mxCell id="ot_1vHmXHA6oFnF6188Q-25" value="+ alterar( obj ) : void" style="text;html=1;strokeColor=none;fillColor=none;align=left;verticalAlign=middle;spacingLeft=4;spacingRight=4;overflow=hidden;rotatable=0;points=[[0,0.5],[1,0.5]];portConstraint=eastwest;whiteSpace=wrap;" vertex="1" parent="ot_1vHmXHA6oFnF6188Q-15">
          <mxGeometry y="228" width="540" height="30" as="geometry" />
        </mxCell>
        <mxCell id="ot_1vHmXHA6oFnF6188Q-26" value="+ excluir( obj ) : void" style="text;html=1;strokeColor=none;fillColor=none;align=left;verticalAlign=middle;spacingLeft=4;spacingRight=4;overflow=hidden;rotatable=0;points=[[0,0.5],[1,0.5]];portConstraint=eastwest;whiteSpace=wrap;" vertex="1" parent="ot_1vHmXHA6oFnF6188Q-15">
          <mxGeometry y="258" width="540" height="30" as="geometry" />
        </mxCell>
        <mxCell id="ot_1vHmXHA6oFnF6188Q-27" value="+ pesquisar( obj ) : obj pao" style="text;html=1;strokeColor=none;fillColor=none;align=left;verticalAlign=middle;spacingLeft=4;spacingRight=4;overflow=hidden;rotatable=0;points=[[0,0.5],[1,0.5]];portConstraint=eastwest;whiteSpace=wrap;" vertex="1" parent="ot_1vHmXHA6oFnF6188Q-15">
          <mxGeometry y="288" width="540" height="30" as="geometry" />
        </mxCell>
        <mxCell id="ot_1vHmXHA6oFnF6188Q-28" value="" style="endArrow=none;html=1;rounded=0;align=center;verticalAlign=top;endFill=0;labelBackgroundColor=none;" edge="1" parent="1">
          <mxGeometry relative="1" as="geometry">
            <mxPoint x="580" y="190" as="sourcePoint" />
            <mxPoint x="740" y="190" as="targetPoint" />
          </mxGeometry>
        </mxCell>
        <mxCell id="ot_1vHmXHA6oFnF6188Q-29" value="1" style="resizable=0;html=1;align=left;verticalAlign=bottom;labelBackgroundColor=none;" connectable="0" vertex="1" parent="ot_1vHmXHA6oFnF6188Q-28">
          <mxGeometry x="-1" relative="1" as="geometry">
            <mxPoint x="10" as="offset" />
          </mxGeometry>
        </mxCell>
        <mxCell id="ot_1vHmXHA6oFnF6188Q-30" value="- É" style="resizable=0;html=1;align=left;verticalAlign=top;labelBackgroundColor=none;" connectable="0" vertex="1" parent="ot_1vHmXHA6oFnF6188Q-28">
          <mxGeometry x="-1" relative="1" as="geometry">
            <mxPoint x="60" as="offset" />
          </mxGeometry>
        </mxCell>
        <mxCell id="ot_1vHmXHA6oFnF6188Q-31" value="n" style="resizable=0;html=1;align=right;verticalAlign=bottom;labelBackgroundColor=none;" connectable="0" vertex="1" parent="ot_1vHmXHA6oFnF6188Q-28">
          <mxGeometry x="1" relative="1" as="geometry">
            <mxPoint x="-10" as="offset" />
          </mxGeometry>
        </mxCell>
      </root>
    </mxGraphModel>
  </diagram>
</mxfile>
